<svg width="17" height="17" viewBox="0 0 17 17" fill="none" xmlns="http://www.w3.org/2000/svg">
<path d="M16.3125 1.125V6.1875C16.3125 6.82031 15.7852 7.3125 15.1875 7.3125H10.125C9.49219 7.3125 9 6.82031 9 6.1875C9 5.58984 9.49219 5.0625 10.125 5.0625H12.3398C11.2852 3.69141 9.63281 2.84766 7.83984 2.84766C4.74609 2.84766 2.25 5.34375 2.25 8.4375C2.25 11.5664 4.74609 14.0625 7.83984 14.0625C9.07031 14.0625 10.2305 13.6758 11.2148 12.9375C11.707 12.5859 12.4102 12.6914 12.7969 13.1836C13.1836 13.6758 13.0781 14.3789 12.5859 14.7656C11.2148 15.7852 9.5625 16.3125 7.83984 16.3125C3.51562 16.3125 0 12.7969 0 8.4375C0 4.11328 3.51562 0.597656 7.83984 0.597656C10.3008 0.597656 12.5508 1.72266 14.0625 3.62109V1.125C14.0625 0.527344 14.5547 0 15.1875 0C15.7852 0 16.3125 0.527344 16.3125 1.125Z" fill="#5C8EE6"/>
</svg>
