<svg width="38" height="38" viewBox="0 0 38 38" fill="none" xmlns="http://www.w3.org/2000/svg">
<path fill-rule="evenodd" clip-rule="evenodd" d="M18.8509 4.19444C20.8163 4.19444 22.6914 4.58127 24.4041 5.28309V10.589V18.7015C24.4041 21.7431 21.9385 24.2088 18.897 24.2088C17.6036 24.2088 16.4143 23.763 15.4745 23.0166V27.8919C16.54 28.2889 17.6932 28.5059 18.897 28.5059C24.8784 28.5059 28.7268 23.7834 28.7268 18.0509V2.79097C25.8547 1.02109 22.472 0 18.8509 0C8.43992 0 0 8.43992 0 18.8509C0 24.7965 2.75255 30.0991 7.05279 33.5542V27.5483C5.25637 25.1154 4.19444 22.1073 4.19444 18.8509C4.19444 10.7564 10.7565 4.19444 18.8509 4.19444Z" fill="white"/>
<path fill-rule="evenodd" clip-rule="evenodd" d="M18.9103 33.5199C16.9448 33.5199 15.0696 33.1331 13.3569 32.4313V27.1253V19.0129C13.3569 15.9713 15.8227 13.5055 18.8643 13.5055C20.1577 13.5055 21.3467 13.9514 22.2865 14.6978V9.82247C21.2211 9.42543 20.068 9.20844 18.8643 9.20844C12.8829 9.20844 9.03442 13.931 9.03442 19.6635V34.9234C11.9063 36.6933 15.289 37.7144 18.9103 37.7144C29.3213 37.7144 37.7612 29.2744 37.7612 18.8634C37.7612 12.9179 35.0087 7.61527 30.7084 4.16016V10.1661C32.5049 12.599 33.5668 15.6071 33.5668 18.8634C33.5668 26.9579 27.0048 33.5199 18.9103 33.5199Z" fill="#5C8EE6"/>
</svg>
