<svg width="200" height="63" viewBox="0 0 200 63" fill="none" xmlns="http://www.w3.org/2000/svg">
<g clip-path="url(#clip0_191_2493)">
<path fill-rule="evenodd" clip-rule="evenodd" d="M31.4182 7.00662C34.6937 7.00662 37.8189 7.6528 40.6734 8.82517V17.6885V31.24C40.6734 36.3208 36.5641 40.4398 31.4949 40.4398C29.3392 40.4398 27.3571 39.695 25.7908 38.4482V46.5921C27.5666 47.2554 29.4887 47.6178 31.4949 47.6178C41.4639 47.6178 47.8779 39.7291 47.8779 30.1532V4.66219C43.0911 1.70569 37.4533 0 31.4182 0C14.0665 0 -6.10352e-05 14.0985 -6.10352e-05 31.4896C-6.10352e-05 41.4214 4.58752 50.2792 11.7546 56.0508V46.0182C8.76055 41.9541 6.99067 36.9292 6.99067 31.4896C6.99067 17.9682 17.9274 7.00662 31.4182 7.00662V7.00662Z" fill="#292D33"/>
<path fill-rule="evenodd" clip-rule="evenodd" d="M31.5171 55.9934C28.2412 55.9934 25.116 55.3472 22.2615 54.1748V45.3115V31.76C22.2615 26.6792 26.3711 22.5602 31.4404 22.5602C33.596 22.5602 35.5778 23.305 37.1441 24.5518V16.4079C35.3684 15.7446 33.4466 15.3822 31.4404 15.3822C21.4714 15.3822 15.0573 23.2709 15.0573 32.8468V58.3378C19.8438 61.2943 25.4817 63 31.5171 63C48.8688 63 62.9353 48.9015 62.9353 31.5104C62.9353 21.5786 58.3477 12.7208 51.1807 6.94922V16.9818C54.1747 21.0459 55.9446 26.0708 55.9446 31.5104C55.9446 45.0318 45.0079 55.9934 31.5171 55.9934V55.9934Z" fill="#5C8EE6"/>
<path d="M101.862 32.2923C101.862 32.444 101.802 32.5654 101.711 32.6565C101.62 32.7477 101.468 32.8082 101.317 32.8082H98.1084C97.9571 32.8082 97.836 32.7477 97.745 32.6565C97.6545 32.5654 97.5636 32.444 97.5334 32.2923L96.1407 26.5277H89.1784L87.7856 32.2923C87.7555 32.444 87.665 32.5654 87.574 32.6565C87.483 32.7477 87.3619 32.8082 87.2106 32.8082H84.0019C83.8506 32.8082 83.6993 32.7477 83.6083 32.6565C83.5174 32.5654 83.457 32.444 83.457 32.2923C83.457 32.2621 83.457 32.2621 83.4872 32.2319C83.4872 32.2016 83.4872 32.1709 83.4872 32.1407L88.4521 13.1175C88.6335 12.4194 88.9059 11.843 89.2387 11.4486C89.5719 11.0542 89.9655 10.7206 90.359 10.5081C90.7526 10.296 91.1461 10.1746 91.5698 10.1136C91.9634 10.0532 92.3268 10.0225 92.6595 10.0225C92.9927 10.0225 93.3556 10.0532 93.7794 10.1136C94.1729 10.1746 94.5971 10.296 94.9906 10.5081C95.3842 10.7206 95.7471 11.0542 96.0803 11.4486C96.4131 11.843 96.6855 12.4194 96.8674 13.1175L101.832 32.1407C101.832 32.1709 101.832 32.2016 101.862 32.2319C101.862 32.2621 101.862 32.2621 101.862 32.2923ZM93.144 14.0581C93.1134 13.8757 93.0531 13.7543 92.9927 13.6636C92.9319 13.6027 92.8108 13.5725 92.6595 13.5725C92.5082 13.5725 92.3871 13.6027 92.3268 13.6636C92.266 13.7543 92.2056 13.8757 92.175 14.0581L89.9956 23.0689H95.3234L93.144 14.0581Z" fill="#292D33"/>
<path d="M116.847 31.989C116.847 32.2016 116.816 32.3532 116.725 32.4439C116.634 32.5351 116.453 32.5956 116.241 32.6263C116.029 32.6867 115.696 32.7477 115.303 32.7779C114.879 32.8384 114.425 32.8993 113.94 32.9295C113.456 32.9598 112.972 32.99 112.457 33.0207C111.943 33.0509 111.488 33.0509 111.095 33.0509C110.096 33.0509 109.188 32.9598 108.34 32.8081C107.492 32.6565 106.766 32.323 106.13 31.8676C105.494 31.4127 105.01 30.8057 104.647 29.9865C104.284 29.1674 104.102 28.1357 104.102 26.831V10.8723C104.102 10.7206 104.162 10.5685 104.284 10.4476C104.405 10.3262 104.556 10.2653 104.708 10.2653H107.704C107.856 10.2653 108.007 10.3262 108.128 10.4476C108.249 10.5685 108.31 10.7206 108.31 10.8723V26.831C108.31 27.8324 108.492 28.5302 108.824 28.8944C109.158 29.2581 109.793 29.4405 110.671 29.4405H116.241C116.392 29.4405 116.544 29.5009 116.665 29.6223C116.786 29.7437 116.847 29.8954 116.847 30.047V31.989ZM123.93 32.2016C123.93 32.3532 123.869 32.5048 123.748 32.6263C123.627 32.7477 123.476 32.8081 123.324 32.8081H120.328C120.176 32.8081 120.025 32.7477 119.904 32.6263C119.783 32.5048 119.722 32.3532 119.722 32.2016V10.842C119.722 10.6899 119.783 10.5383 119.904 10.4169C120.025 10.3262 120.176 10.2653 120.328 10.2653H123.324C123.476 10.2653 123.627 10.3262 123.748 10.4169C123.869 10.5383 123.93 10.6899 123.93 10.842V32.2016ZM145.18 32.2923C145.18 32.4439 145.12 32.5653 145.029 32.6565C144.939 32.7476 144.787 32.8081 144.635 32.8081H141.427C141.275 32.8081 141.154 32.7476 141.063 32.6565C140.973 32.5653 140.882 32.4439 140.852 32.2923L139.459 26.5277H132.497L131.104 32.2923C131.074 32.4439 130.983 32.5653 130.892 32.6565C130.801 32.7476 130.681 32.8081 130.529 32.8081H127.32C127.169 32.8081 127.018 32.7476 126.927 32.6565C126.836 32.5653 126.775 32.4439 126.775 32.2923C126.775 32.262 126.775 32.262 126.806 32.2318C126.806 32.2016 126.806 32.1709 126.806 32.1406L131.77 13.1175C131.952 12.4194 132.224 11.843 132.557 11.4486C132.89 11.0542 133.284 10.7206 133.677 10.5081C134.071 10.296 134.464 10.1746 134.888 10.1136C135.282 10.0532 135.645 10.0225 135.978 10.0225C136.311 10.0225 136.674 10.0532 137.098 10.1136C137.492 10.1746 137.915 10.296 138.309 10.5081C138.703 10.7206 139.065 11.0542 139.399 11.4486C139.731 11.843 140.004 12.4194 140.186 13.1175L145.15 32.1406C145.15 32.1709 145.15 32.2016 145.18 32.2318C145.18 32.262 145.18 32.262 145.18 32.2923ZM136.462 14.0581C136.432 13.8757 136.371 13.7543 136.311 13.6636C136.25 13.6027 136.129 13.5725 135.978 13.5725C135.827 13.5725 135.705 13.6027 135.645 13.6636C135.584 13.7543 135.524 13.8757 135.494 14.0581L133.314 23.0689H138.642L136.462 14.0581ZM165.038 31.5945C165.038 31.9285 164.918 32.2318 164.706 32.4439C164.463 32.6867 164.161 32.8081 163.828 32.8081H160.77C160.407 32.8081 160.074 32.7476 159.771 32.6565C159.438 32.5653 159.166 32.262 158.923 31.716L152.203 16.9401C152.112 16.7885 152.022 16.6973 151.931 16.6973C151.84 16.6973 151.78 16.7885 151.78 16.9401V32.2016C151.78 32.3532 151.719 32.5048 151.628 32.6263C151.507 32.7477 151.356 32.8081 151.205 32.8081H148.631C148.48 32.8081 148.329 32.7477 148.208 32.6263C148.086 32.5048 148.026 32.3532 148.026 32.2016V11.4788C148.026 11.1453 148.147 10.842 148.389 10.5992C148.601 10.3867 148.904 10.2653 149.237 10.2653H152.506C152.839 10.2653 153.081 10.3262 153.293 10.4476C153.475 10.5685 153.656 10.842 153.838 11.236L160.891 26.831C160.952 26.9826 161.043 27.0738 161.133 27.0738C161.224 27.0738 161.285 26.9826 161.285 26.8008V10.842C161.285 10.4476 161.467 10.2653 161.86 10.2653H164.463C164.857 10.2653 165.038 10.4476 165.038 10.842V31.5945ZM182.959 31.8676C182.959 32.0802 182.899 32.2318 182.778 32.323C182.657 32.4137 182.505 32.5048 182.293 32.5653C182.172 32.5955 181.96 32.6565 181.688 32.6867C181.385 32.7477 181.022 32.8081 180.598 32.8691C180.174 32.8993 179.69 32.9598 179.176 32.99C178.661 33.0207 178.085 33.0509 177.51 33.0509C176.602 33.0509 175.634 32.9295 174.634 32.6565C173.636 32.3834 172.697 31.8978 171.88 31.2001C171.032 30.5024 170.366 29.5619 169.791 28.3785C169.246 27.1952 168.974 25.6477 168.974 23.7666V19.3068C168.974 17.3955 169.246 15.848 169.791 14.6344C170.366 13.4511 171.032 12.5105 171.88 11.8128C172.697 11.1151 173.636 10.6597 174.634 10.3867C175.634 10.1439 176.602 10.0225 177.51 10.0225C178.085 10.0225 178.661 10.0532 179.176 10.0834C179.69 10.1136 180.174 10.1746 180.598 10.2048C181.022 10.2653 181.385 10.3262 181.688 10.3867C181.96 10.4476 182.172 10.4778 182.293 10.5081C182.505 10.5685 182.657 10.6295 182.778 10.7206C182.899 10.8113 182.959 10.9937 182.959 11.2058V13.2389C182.959 13.4208 182.929 13.5725 182.838 13.6939C182.747 13.8153 182.566 13.8757 182.354 13.8757H182.293C182.021 13.8455 181.718 13.8153 181.355 13.785C180.961 13.7543 180.568 13.7543 180.144 13.7241C179.72 13.6939 179.296 13.6939 178.842 13.6636C178.388 13.6334 177.964 13.6334 177.571 13.6334C176.935 13.6334 176.33 13.7241 175.815 13.9064C175.27 14.1185 174.816 14.4218 174.423 14.847C174.029 15.3019 173.727 15.8782 173.515 16.6066C173.303 17.3346 173.181 18.2448 173.181 19.3068V23.7666C173.181 24.8285 173.303 25.7086 173.515 26.4365C173.727 27.165 174.029 27.7413 174.423 28.1967C174.816 28.6516 175.27 28.9548 175.815 29.1372C176.33 29.3493 176.935 29.4405 177.571 29.4405C177.964 29.4405 178.388 29.4405 178.842 29.4102C179.296 29.3795 179.72 29.3795 180.144 29.3493C180.568 29.3191 180.961 29.2888 181.355 29.2581C181.718 29.2279 182.021 29.2279 182.293 29.1977H182.354C182.566 29.1977 182.747 29.2581 182.838 29.3795C182.929 29.5009 182.959 29.6526 182.959 29.8349V31.8676ZM200.002 31.989C200.002 32.2016 199.972 32.3532 199.881 32.4439C199.79 32.5351 199.609 32.5956 199.396 32.6263C199.154 32.6565 198.882 32.7169 198.609 32.7476C198.307 32.8081 197.943 32.8691 197.52 32.8993C197.066 32.9295 196.551 32.99 195.945 33.0207C195.31 33.0509 194.553 33.0509 193.645 33.0509C192.646 33.0509 191.738 32.9598 190.891 32.8081C190.043 32.6565 189.286 32.323 188.681 31.8676C188.045 31.4127 187.53 30.8057 187.167 29.9865C186.804 29.1674 186.622 28.1357 186.622 26.831V16.2424C186.622 14.9377 186.804 13.9064 187.167 13.0868C187.53 12.2677 188.045 11.6305 188.681 11.1755C189.286 10.7206 190.043 10.4169 190.891 10.2653C191.738 10.1136 192.646 10.0225 193.645 10.0225C194.553 10.0225 195.31 10.0225 195.945 10.0532C196.551 10.0834 197.066 10.1439 197.52 10.1746C197.943 10.2048 198.307 10.2653 198.609 10.296C198.882 10.3564 199.154 10.4169 199.396 10.4476C199.609 10.4778 199.79 10.5383 199.881 10.6295C199.972 10.7206 200.002 10.8723 200.002 11.0844V13.0264C200.002 13.178 199.941 13.3297 199.82 13.4511C199.7 13.5725 199.548 13.6334 199.396 13.6334H193.221C192.343 13.6334 191.708 13.8153 191.375 14.1795C191.011 14.5432 190.83 15.2409 190.83 16.2424V19.5194H199.034C199.185 19.5194 199.336 19.5798 199.457 19.7012C199.578 19.8226 199.639 19.9743 199.639 20.1259V22.3102C199.639 22.4623 199.578 22.614 199.457 22.7354C199.336 22.8568 199.185 22.9172 199.034 22.9172H190.83V26.831C190.83 27.8324 191.011 28.5302 191.375 28.8944C191.708 29.2581 192.343 29.4405 193.221 29.4405H199.396C199.548 29.4405 199.7 29.5009 199.82 29.6223C199.941 29.7437 200.002 29.8954 200.002 30.047V31.989Z" fill="#292D33"/>
<path d="M94.1086 42.9356C94.1086 43.7873 93.954 44.5031 93.6644 45.0832C93.3558 45.6637 92.9506 46.1283 92.429 46.4763C91.9273 46.8442 91.3291 47.0954 90.6724 47.2307C89.9972 47.3856 89.2829 47.4633 88.5297 47.4633C88.2791 47.4633 87.9895 47.4438 87.6419 47.4242C87.3138 47.4052 87.0242 47.4052 86.8116 47.3856V52.4353C86.8116 52.532 86.7731 52.6288 86.7151 52.7064C86.6381 52.7837 86.5415 52.8223 86.445 52.8223H84.5148C84.4183 52.8223 84.3218 52.7837 84.2443 52.7064C84.1672 52.6288 84.1287 52.532 84.1287 52.4353V39.1242C84.1287 38.9307 84.1867 38.7953 84.3023 38.6986C84.3988 38.6213 84.5534 38.5632 84.7464 38.5441C85.2481 38.4665 85.8273 38.4083 86.4835 38.3506C87.1402 38.3116 87.835 38.2925 88.5492 38.2925C89.2829 38.2925 89.9972 38.3697 90.6724 38.5051C91.3291 38.6404 91.9273 38.8921 92.429 39.2405C92.9506 39.5888 93.3558 40.0531 93.6644 40.614C93.954 41.1945 94.1086 41.9104 94.1086 42.7616V42.9356ZM91.4256 42.7421C91.4256 41.9299 91.1936 41.3494 90.7114 41.0206C90.2287 40.6722 89.495 40.4982 88.5297 40.4982C88.4332 40.4982 88.2981 40.4982 88.1436 40.4982C87.97 40.5173 87.8155 40.5173 87.6419 40.5173C87.4683 40.5368 87.3138 40.5368 87.1787 40.5368C87.0242 40.5559 86.9082 40.5559 86.8116 40.5754V45.1994C86.8891 45.1994 87.0047 45.1994 87.1787 45.1994C87.3333 45.219 87.5068 45.219 87.6804 45.219C87.8545 45.2381 88.0085 45.238 88.1826 45.238C88.3366 45.2576 88.4527 45.2576 88.5297 45.2576C89.5721 45.2576 90.3253 45.0641 90.7689 44.6771C91.2131 44.2901 91.4256 43.7096 91.4256 42.9165V42.7421ZM106.637 52.5902C106.637 52.745 106.56 52.8223 106.405 52.8223H104.05C103.953 52.8223 103.876 52.7837 103.818 52.7064C103.761 52.6288 103.722 52.532 103.664 52.4353L100.884 47.2889H100.614C100.363 47.2889 100.054 47.2698 99.7259 47.2503C99.3978 47.2307 99.1082 47.2307 98.8961 47.2117V52.4353C98.8961 52.532 98.8571 52.6288 98.7996 52.7064C98.7221 52.7837 98.6256 52.8223 98.529 52.8223H96.5989C96.5023 52.8223 96.4058 52.7837 96.3288 52.7064C96.2513 52.6288 96.2127 52.532 96.2127 52.4353V39.1242C96.2127 38.9307 96.2708 38.7953 96.3863 38.6986C96.4828 38.6213 96.6374 38.5632 96.8305 38.5441C97.3321 38.4665 97.9113 38.4083 98.568 38.3506C99.2242 38.3116 99.919 38.2925 100.633 38.2925C101.367 38.2925 102.081 38.3697 102.757 38.5051C103.413 38.6599 104.011 38.9116 104.513 39.2405C105.035 39.5693 105.44 40.0145 105.749 40.5754C106.038 41.1364 106.193 41.8332 106.193 42.6649V42.8388C106.193 43.8645 105.961 44.7157 105.478 45.3543C105.015 45.9925 104.378 46.4763 103.568 46.7861L106.598 52.4353C106.617 52.4743 106.637 52.532 106.637 52.5902ZM103.51 42.6649C103.51 41.9299 103.278 41.4076 102.795 41.0782C102.313 40.7494 101.579 40.595 100.614 40.595C100.518 40.595 100.382 40.595 100.228 40.595C100.054 40.614 99.9 40.614 99.7259 40.614C99.5523 40.6336 99.3978 40.6336 99.2628 40.6336C99.1082 40.6526 98.9927 40.6526 98.8961 40.6722V45.0255C98.9732 45.0255 99.0892 45.0255 99.2628 45.0255C99.4173 45.0445 99.5909 45.0446 99.7644 45.0446C99.9385 45.0641 100.093 45.0641 100.267 45.0641C100.421 45.0832 100.537 45.0832 100.614 45.0832C101.618 45.0832 102.351 44.9287 102.814 44.5999C103.278 44.271 103.51 43.6905 103.51 42.8388V42.6649Z" fill="#5C8EE6"/>
<path d="M119.03 46.941C119.03 48.0048 118.894 48.9337 118.624 49.6882C118.335 50.4426 117.968 51.0617 117.466 51.5455C116.984 52.0292 116.404 52.3967 115.729 52.6288C115.073 52.8609 114.339 52.9772 113.548 52.9772C112.737 52.9772 112.003 52.8609 111.347 52.6288C110.671 52.3967 110.092 52.0292 109.61 51.5455C109.127 51.0617 108.741 50.4426 108.47 49.6882C108.181 48.9337 108.046 48.0048 108.046 46.941V44.3287C108.046 43.2649 108.181 42.3556 108.47 41.5816C108.741 40.8271 109.127 40.1884 109.61 39.7047C110.092 39.2209 110.671 38.873 111.347 38.6404C112.003 38.4083 112.737 38.2925 113.548 38.2925C114.339 38.2925 115.073 38.4083 115.729 38.6404C116.404 38.873 116.984 39.2209 117.466 39.7047C117.968 40.1884 118.335 40.8271 118.624 41.5816C118.894 42.3556 119.03 43.2649 119.03 44.3287V46.941ZM116.346 44.3287C116.346 43.0323 116.115 42.1039 115.652 41.5039C115.208 40.9238 114.493 40.6336 113.548 40.6336C112.582 40.6336 111.868 40.9238 111.424 41.5039C110.961 42.1039 110.729 43.0323 110.729 44.3287V46.941C110.729 48.2369 110.961 49.1658 111.424 49.7463C111.868 50.3459 112.582 50.6361 113.548 50.6361C114.493 50.6361 115.208 50.3459 115.652 49.7463C116.115 49.1658 116.346 48.2369 116.346 46.941V44.3287ZM131.944 47.0568C131.944 48.9723 131.422 50.4426 130.361 51.4487C129.318 52.4744 127.813 52.9772 125.883 52.9772C125.516 52.9772 125.168 52.9772 124.782 52.9577C124.396 52.9386 124.029 52.9191 123.682 52.9C123.315 52.8805 123.006 52.8419 122.717 52.8223C122.427 52.8032 122.195 52.7642 122.06 52.7451C121.887 52.7256 121.771 52.6679 121.694 52.5711C121.597 52.4744 121.558 52.3386 121.558 52.1451V39.1242C121.558 38.9307 121.597 38.7953 121.694 38.6986C121.771 38.6018 121.887 38.5441 122.06 38.5246C122.195 38.5051 122.427 38.4664 122.717 38.4474C123.006 38.4278 123.315 38.3892 123.682 38.3697C124.029 38.3506 124.396 38.3311 124.782 38.3116C125.168 38.2925 125.516 38.2925 125.883 38.2925C127.813 38.2925 129.318 38.7953 130.361 39.8014C131.422 40.8271 131.944 42.2974 131.944 44.2129V47.0568ZM129.261 44.2129C129.261 43.497 129.183 42.897 129.01 42.4328C128.836 41.949 128.585 41.5816 128.295 41.2913C127.986 41.0206 127.62 40.8271 127.215 40.7108C126.79 40.614 126.346 40.5559 125.863 40.5559C125.496 40.5559 125.187 40.5559 124.936 40.5754C124.686 40.595 124.454 40.595 124.242 40.614V50.6747C124.454 50.6943 124.686 50.6943 124.936 50.7133C125.187 50.7329 125.496 50.7329 125.863 50.7329C126.346 50.7329 126.79 50.6747 127.215 50.5589C127.62 50.4622 127.986 50.2687 128.295 49.9784C128.585 49.7077 128.836 49.3398 129.01 48.856C129.183 48.3918 129.261 47.7922 129.261 47.0763V44.2129ZM144.954 47.502C144.954 48.5271 144.819 49.3979 144.568 50.0942C144.298 50.791 143.931 51.352 143.468 51.7776C142.985 52.2032 142.426 52.513 141.788 52.687C141.132 52.8805 140.418 52.9772 139.646 52.9772C138.874 52.9772 138.16 52.8805 137.522 52.687C136.866 52.513 136.307 52.2032 135.843 51.7776C135.36 51.352 134.994 50.791 134.743 50.0942C134.472 49.3979 134.337 48.5271 134.337 47.502V38.8149C134.337 38.7181 134.376 38.6213 134.453 38.5441C134.53 38.486 134.627 38.4474 134.724 38.4474H136.635C136.731 38.4474 136.828 38.486 136.905 38.5441C136.982 38.6213 137.021 38.7181 137.021 38.8149V47.521C137.021 48.0629 137.059 48.5467 137.136 48.9528C137.214 49.3593 137.349 49.7077 137.561 49.9784C137.754 50.2491 138.024 50.4426 138.353 50.578C138.681 50.7133 139.125 50.7715 139.646 50.7715C140.167 50.7715 140.592 50.7133 140.939 50.578C141.267 50.4426 141.538 50.2491 141.75 49.9784C141.943 49.7077 142.078 49.3593 142.156 48.9528C142.233 48.5467 142.271 48.0629 142.271 47.521V38.8149C142.271 38.7181 142.31 38.6213 142.387 38.5441C142.464 38.486 142.561 38.4474 142.657 38.4474H144.568C144.665 38.4474 144.761 38.486 144.838 38.5441C144.916 38.6213 144.954 38.7181 144.954 38.8149V47.502ZM156.286 52.2227C156.286 52.3581 156.247 52.4549 156.17 52.513C156.093 52.5711 155.996 52.6288 155.861 52.6679C155.784 52.687 155.649 52.7256 155.475 52.7451C155.282 52.7837 155.05 52.8223 154.78 52.8609C154.51 52.8805 154.201 52.9191 153.873 52.9386C153.544 52.9577 153.178 52.9772 152.811 52.9772C152.232 52.9772 151.614 52.9 150.977 52.7256C150.34 52.5516 149.742 52.2418 149.22 51.7971C148.68 51.352 148.256 50.7524 147.888 49.9975C147.541 49.243 147.367 48.2564 147.367 47.0568V44.2129C147.367 42.9937 147.541 42.0072 147.888 41.2332C148.256 40.4787 148.68 39.8791 149.22 39.434C149.742 38.9888 150.34 38.6986 150.977 38.5246C151.614 38.3697 152.232 38.2925 152.811 38.2925C153.178 38.2925 153.544 38.3116 153.873 38.3311C154.201 38.3506 154.51 38.3892 154.78 38.4083C155.05 38.4474 155.282 38.486 155.475 38.5246C155.649 38.5632 155.784 38.5827 155.861 38.6018C155.996 38.6404 156.093 38.6795 156.17 38.7372C156.247 38.7953 156.286 38.9116 156.286 39.047V40.3433C156.286 40.4591 156.266 40.5559 156.208 40.6336C156.151 40.7108 156.035 40.7494 155.9 40.7494H155.861C155.687 40.7303 155.494 40.7108 155.262 40.6913C155.012 40.6722 154.761 40.6722 154.491 40.6527C154.22 40.6336 153.95 40.6336 153.66 40.614C153.371 40.595 153.101 40.595 152.85 40.595C152.444 40.595 152.058 40.6527 151.73 40.7689C151.383 40.9043 151.093 41.0978 150.842 41.3685C150.591 41.6588 150.398 42.0267 150.263 42.4909C150.128 42.9551 150.051 43.5356 150.051 44.2129V47.0568C150.051 47.7341 150.128 48.295 150.263 48.7592C150.398 49.2239 150.591 49.5914 150.842 49.8817C151.093 50.1719 151.383 50.3654 151.73 50.4812C152.058 50.6166 152.444 50.6747 152.85 50.6747C153.101 50.6747 153.371 50.6747 153.66 50.6557C153.95 50.6361 154.22 50.6361 154.491 50.6166C154.761 50.5975 155.012 50.578 155.262 50.5589C155.494 50.5394 155.687 50.5394 155.861 50.5198H155.9C156.035 50.5198 156.151 50.5589 156.208 50.6361C156.266 50.7133 156.286 50.8101 156.286 50.9264V52.2227ZM167.868 40.3433C167.868 40.4401 167.829 40.5368 167.752 40.595C167.675 40.6526 167.578 40.6913 167.482 40.6913H164.104V52.4353C164.104 52.5321 164.065 52.6288 163.988 52.7065C163.911 52.7837 163.814 52.8223 163.718 52.8223H161.807C161.71 52.8223 161.613 52.7837 161.536 52.7065C161.459 52.6288 161.42 52.5321 161.42 52.4353V40.6913H158.042C157.946 40.6913 157.849 40.6526 157.772 40.595C157.695 40.5368 157.656 40.4401 157.656 40.3433V38.8149C157.656 38.7181 157.695 38.6213 157.772 38.5441C157.849 38.486 157.946 38.4474 158.042 38.4474H167.482C167.578 38.4474 167.675 38.486 167.752 38.5441C167.829 38.6213 167.868 38.7181 167.868 38.8149V40.3433ZM172.482 52.4353C172.482 52.5321 172.443 52.6288 172.366 52.7065C172.289 52.7837 172.192 52.8223 172.095 52.8223H170.184C170.088 52.8223 169.991 52.7837 169.914 52.7065C169.837 52.6288 169.798 52.5321 169.798 52.4353V38.8149C169.798 38.7181 169.837 38.6213 169.914 38.5441C169.991 38.486 170.088 38.4474 170.184 38.4474H172.095C172.192 38.4474 172.289 38.486 172.366 38.5441C172.443 38.6213 172.482 38.7181 172.482 38.8149V52.4353ZM185.975 46.941C185.975 48.0048 185.84 48.9337 185.569 49.6882C185.28 50.4426 184.913 51.0617 184.411 51.5455C183.928 52.0292 183.349 52.3967 182.674 52.6288C182.017 52.8609 181.284 52.9772 180.492 52.9772C179.682 52.9772 178.948 52.8609 178.292 52.6288C177.616 52.3967 177.037 52.0292 176.554 51.5455C176.072 51.0617 175.686 50.4426 175.416 49.6882C175.126 48.9337 174.991 48.0048 174.991 46.941V44.3287C174.991 43.2649 175.126 42.3556 175.416 41.5816C175.686 40.8271 176.072 40.1884 176.554 39.7047C177.037 39.2209 177.616 38.873 178.292 38.6404C178.948 38.4083 179.682 38.2925 180.492 38.2925C181.284 38.2925 182.017 38.4083 182.674 38.6404C183.349 38.873 183.928 39.2209 184.411 39.7047C184.913 40.1884 185.28 40.8271 185.569 41.5816C185.84 42.3556 185.975 43.2649 185.975 44.3287V46.941ZM183.291 44.3287C183.291 43.0323 183.06 42.1039 182.596 41.5039C182.152 40.9238 181.438 40.6336 180.492 40.6336C179.527 40.6336 178.813 40.9238 178.369 41.5039C177.906 42.1039 177.674 43.0323 177.674 44.3287V46.941C177.674 48.2369 177.906 49.1658 178.369 49.7463C178.813 50.3459 179.527 50.6361 180.492 50.6361C181.438 50.6361 182.152 50.3459 182.596 49.7463C183.06 49.1658 183.291 48.2369 183.291 46.941V44.3287ZM199.352 52.0488C199.352 52.2614 199.275 52.4549 199.14 52.5902C198.985 52.7451 198.792 52.8223 198.58 52.8223H196.63C196.399 52.8223 196.186 52.7837 195.993 52.7256C195.781 52.6679 195.607 52.4744 195.453 52.126L191.167 42.7035C191.109 42.6067 191.051 42.5491 190.994 42.5491C190.936 42.5491 190.897 42.6067 190.897 42.7035V52.4353C190.897 52.5321 190.858 52.6288 190.801 52.7065C190.723 52.7837 190.627 52.8223 190.53 52.8223H188.89C188.793 52.8223 188.696 52.7837 188.619 52.7065C188.542 52.6288 188.503 52.5321 188.503 52.4353V39.2209C188.503 39.0084 188.58 38.8148 188.735 38.66C188.87 38.5246 189.063 38.4474 189.276 38.4474H191.36C191.572 38.4474 191.727 38.486 191.862 38.5632C191.978 38.6404 192.094 38.8148 192.21 39.0665L196.708 49.0109C196.746 49.1076 196.804 49.1658 196.862 49.1658C196.92 49.1658 196.958 49.1076 196.958 48.9918V38.8149C196.958 38.5632 197.074 38.4474 197.325 38.4474H198.985C199.236 38.4474 199.352 38.5632 199.352 38.8149V52.0488Z" fill="#5C8EE6"/>
</g>
<defs>
<clipPath id="clip0_191_2493">
<rect width="200" height="63" fill="white"/>
</clipPath>
</defs>
</svg>
